HIERARCHY
ROOT root
{
	OFFSET	0	13.1	24.9
	CHANNELS 6  Xposition Yposition Zposition Xrotation Yrotation Zrotation
	JOINT spine_1
	{
		OFFSET	0	9.99999	0
		CHANNELS 3  Xrotation Yrotation Zrotation
		JOINT spine_2
		{
			OFFSET	0	112	-10
			CHANNELS 3  Xrotation Yrotation Zrotation
			JOINT spine_3
			{
				OFFSET	0	206.5	19.3
				CHANNELS 3  Xrotation Yrotation Zrotation
				JOINT spine_4
				{
					OFFSET	0	110.4	14.6
					CHANNELS 3  Xrotation Yrotation Zrotation
					JOINT neck_1
					{
						OFFSET	0	71.8	-50.3
						CHANNELS 3  Xrotation Yrotation Zrotation
						JOINT neck_2
						{
							OFFSET	0	86.2	-25.8
							CHANNELS 3  Xrotation Yrotation Zrotation
							JOINT head_ee
							{
								OFFSET	0	179.8	-8.7
								CHANNELS 3  Xrotation Yrotation Zrotation
								End Site
								{
									OFFSET	1	0	0
								}
							}
						}
					}
					JOINT left_clavicle
					{
						OFFSET	-43.2	22.4	-70.8
						CHANNELS 3  Xrotation Yrotation Zrotation
						JOINT left_shoulder
						{
							OFFSET	-93.9	-5.79999	48.7
							CHANNELS 3  Xrotation Yrotation Zrotation
							JOINT left_elbow
							{
								OFFSET	-291.4	-30.8	15.2
								CHANNELS 3  Xrotation Yrotation Zrotation
								JOINT left_lowarm_twist
								{
									OFFSET	-110.7	-3.89999	13.6
									CHANNELS 3  Xrotation Yrotation Zrotation
									JOINT left_hand
									{
										OFFSET	-110.7	-3.89999	13.6
										CHANNELS 3  Xrotation Yrotation Zrotation
										JOINT left_ee
										{
											OFFSET	-80.8	-5.10001	12.1
											CHANNELS 3  Xrotation Yrotation Zrotation
											End Site
											{
												OFFSET	1	0	0
											}
										}
									}
								}
							}
						}
					}
					JOINT right_clavicle
					{
						OFFSET	43.2	22.4	-70.8
						CHANNELS 3  Xrotation Yrotation Zrotation
						JOINT right_shoulder
						{
							OFFSET	93.9	-5.79999	48.7
							CHANNELS 3  Xrotation Yrotation Zrotation
							JOINT right_elbow
							{
								OFFSET	291.4	-30.8	15.2
								CHANNELS 3  Xrotation Yrotation Zrotation
								JOINT right_lowarm_twist
								{
									OFFSET	110.7	-3.89999	13.6
									CHANNELS 3  Xrotation Yrotation Zrotation
									JOINT right_hand
									{
										OFFSET	110.7	-3.89999	13.6
										CHANNELS 3  Xrotation Yrotation Zrotation
										JOINT right_ee
										{
											OFFSET	80.8	-5.10001	12.1
											CHANNELS 3  Xrotation Yrotation Zrotation
											End Site
											{
												OFFSET	1	0	0
											}
										}
									}
								}
							}
						}
					}
				}
			}
		}
	}
	JOINT left_hip
	{
		OFFSET	-82.8	-127.5	0.300001
		CHANNELS 3  Xrotation Yrotation Zrotation
		JOINT left_knee
		{
			OFFSET	-28.2	-396.7	2.2
			CHANNELS 3  Xrotation Yrotation Zrotation
			JOINT left_ankle
			{
				OFFSET	-11.7	-411.3	35.4
				CHANNELS 3  Xrotation Yrotation Zrotation
				JOINT left_toes
				{
					OFFSET	0	-60	-88.6
					CHANNELS 3  Xrotation Yrotation Zrotation
					JOINT left_foot_ee
					{
						OFFSET	-22.5	-16.5	-42.2
						CHANNELS 3  Xrotation Yrotation Zrotation
						End Site
						{
							OFFSET	1	0	0
						}
					}
				}
			}
		}
	}
	JOINT right_hip
	{
		OFFSET	82.8	-127.5	0.300001
		CHANNELS 3  Xrotation Yrotation Zrotation
		JOINT right_knee
		{
			OFFSET	28.2	-396.7	2.2
			CHANNELS 3  Xrotation Yrotation Zrotation
			JOINT right_ankle
			{
				OFFSET	11.7	-411.3	35.4
				CHANNELS 3  Xrotation Yrotation Zrotation
				JOINT right_toes
				{
					OFFSET	0	-60	-88.6
					CHANNELS 3  Xrotation Yrotation Zrotation
					JOINT right_foot_ee
					{
						OFFSET	22.5	-16.5	-42.2
						CHANNELS 3  Xrotation Yrotation Zrotation
						End Site
						{
							OFFSET	1	0	0
						}
					}
				}
			}
		}
	}
}
MOTION
Frames: 8
Frame Time: 0.02
2908.49 746.507 -1360.36 4.34325 60.9227 -13.062 0.767224 0.701995 3.71209 0.774769 0.464533 3.74916 0.807765 -0.280808 3.76736 0.788103 0.317267 3.76446 -11.7414 16.7405 5.98287 -12.0714 27.9263 10.5238 -0.0 0.0 -0.0 0.931156 9.27446 2.71892 -1.49306 -17.982 50.0114 1.3496 -33.7632 0.409584 -44.1479 -3.4027 4.3424 -2.88377 19.4563 -9.40727 -0.0 0.0 -0.0 12.4765 19.9844 -25.0323 -15.9682 11.9789 -64.1878 0.164643 4.66279 -0.00670309 59.562 1.73509 7.06738 -0.527819 -15.3643 -3.01178 0.0 0.0 0.0 -2.91301 -4.87818 14.4311 3.27915 -0.148858 -0.48106 22.1657 27.3149 -3.19489 -18.6894 0.0 0.0 -0.0 0.0 -0.0 12.0292 25.1642 9.57256 -51.2877 1.33616 -7.49879 28.6666 -25.7696 3.97003 35.2659 -0.0 -0.0 0.0 0.0 0.0 
2896.24 745.75 -1357.36 4.46292 60.4063 -12.7066 0.790814 0.668223 3.61768 0.797988 0.436825 3.6528 0.828238 -0.287769 3.66754 0.809592 0.294661 3.66699 -13.3981 16.4989 5.34232 -13.9106 28.176 10.2999 -0.0 0.0 -0.0 1.17833 9.38222 3.15866 -0.69827 -17.8915 47.5307 1.49718 -36.5604 0.494596 -44.6884 -3.46301 4.37669 -3.14481 19.6774 -10.8696 -0.0 0.0 -0.0 12.3908 20.1328 -24.8239 -16.907 10.4728 -63.8972 0.180331 5.10484 -0.00803875 58.8541 1.67298 7.00122 -1.65434 -17.1418 3.11268 0.0 0.0 0.0 -6.35779 -1.84406 15.7121 4.98827 -0.237318 -0.728281 24.5723 26.8174 -3.49318 -17.1399 0.0 0.0 -0.0 0.0 -0.0 15.8382 23.3795 7.13803 -53.2789 1.51957 -7.74467 25.1089 -29.4197 3.62457 34.9048 -0.0 -0.0 0.0 0.0 0.0 
2881.49 746.221 -1359.49 5.70757 59.3418 -13.8102 0.730622 0.672297 3.63033 0.737845 0.440087 3.66568 0.768544 -0.290933 3.68051 0.749765 0.293581 3.6803 -14.4949 16.8843 5.29239 -15.1661 29.1302 10.7106 -0.0 0.0 -0.0 1.3211 9.33646 3.40272 0.396135 -17.5847 45.4681 1.59822 -38.3662 0.556061 -44.6482 -3.45851 4.37416 -3.41137 20.5454 -11.9915 -0.0 0.0 -0.0 12.3361 20.1928 -24.6933 -17.788 9.33647 -64.3654 0.175751 4.97586 -0.00763632 58.3418 1.62854 6.95287 -2.29812 -17.7413 6.74567 0.0 0.0 0.0 -8.62004 -0.645339 16.0147 4.77692 -0.225979 -0.69785 25.2417 26.6456 -3.57345 -17.6752 0.0 0.0 -0.0 0.0 -0.0 18.6875 22.152 5.66754 -53.4427 1.53504 -7.76461 20.1491 -29.1373 2.96483 33.2485 -0.0 -0.0 0.0 0.0 0.0 
2868.55 747.138 -1359.45 6.98312 58.1295 -14.6806 0.511993 0.822515 3.58212 0.518935 0.593063 3.62712 0.559618 -0.146444 3.67231 0.541066 0.434971 3.64943 -14.8653 16.8415 4.35648 -15.6375 29.6571 9.95302 -0.0 0.0 -0.0 1.31892 9.30936 3.39655 1.1242 -17.925 43.9922 1.70535 -40.1871 0.623894 -45.2077 -3.52124 4.40909 -3.51105 19.8607 -13.0001 -0.0 0.0 -0.0 12.2596 20.0822 -24.5251 -18.4105 7.56955 -64.0188 0.169405 4.79706 -0.00709583 58.2154 1.61764 6.94088 -2.84272 -17.7038 10.1061 0.0 0.0 0.0 -10.915 1.70864 16.8787 4.45447 -0.208897 -0.651347 27.2604 27.2124 -3.8366 -16.5663 0.0 0.0 -0.0 0.0 -0.0 21.8319 18.4625 3.24215 -42.889 0.660719 -6.39791 19.5974 -28.5003 2.87733 26.3987 -0.0 -0.0 0.0 0.0 0.0 
2861.8 746.744 -1359.81 5.04496 56.6887 -12.258 0.445515 0.942672 3.50252 0.452052 0.718032 3.55531 0.499929 -0.0131306 3.62698 0.482011 0.559475 3.58365 -14.1764 17.7628 3.5976 -15.0253 31.7747 9.40759 -0.0 0.0 -0.0 1.24408 8.62637 3.20523 2.56496 -18.157 42.3232 1.81518 -41.9575 0.696059 -45.1928 -3.51957 4.40817 -3.58597 19.7375 -13.5331 -0.0 0.0 -0.0 12.56 21.5993 -25.101 -18.1029 5.62608 -63.952 0.155637 4.40878 -0.00599094 57.9036 1.59088 6.9112 -3.53372 -18.0648 14.1968 0.0 0.0 0.0 -12.0009 4.4492 16.8009 6.83057 -0.340905 -0.991742 28.5443 27.6265 -4.00321 -16.6149 0.0 0.0 -0.0 0.0 -0.0 23.1728 15.7141 2.03594 -34.1793 0.138563 -5.16659 18.0166 -26.0172 2.62015 20.9382 -0.0 -0.0 0.0 0.0 0.0 
2848.25 748.815 -1360.15 4.20472 55.5484 -11.1344 0.577365 0.887384 3.53882 0.584088 0.660551 3.58802 0.628489 -0.0679504 3.64761 0.610285 0.508592 3.61267 -13.6509 18.2322 2.70428 -14.5387 33.1378 8.59754 -0.0 0.0 -0.0 1.17925 8.70748 3.09891 3.32296 -18.297 41.314 1.88202 -42.9889 0.741193 -45.1855 -3.51874 4.40772 -3.61795 19.7085 -13.7473 -0.0 0.0 -0.0 12.5645 21.8618 -25.0893 -18.5973 4.03476 -64.0519 0.175173 4.95959 -0.00758631 57.678 1.57162 6.88964 -3.93652 -18.3102 16.587 0.0 0.0 0.0 -13.447 6.8692 17.0255 7.47464 -0.379117 -1.08306 28.0768 27.5469 -3.94461 -17.2015 0.0 0.0 -0.0 0.0 -0.0 23.1675 14.1069 2.06016 -29.9575 -0.0456934 -4.54512 15.9586 -21.8447 2.28929 17.108 -0.0 -0.0 0.0 0.0 0.0 
2830.48 748.104 -1360.96 3.22794 55.1636 -10.1021 0.719119 0.949129 3.57599 0.725944 0.71981 3.62905 0.774409 -0.00850638 3.69964 0.755773 0.575493 3.65468 -14.3389 18.2736 3.09767 -15.309 33.0728 9.21083 -0.0 0.0 -0.0 1.13704 8.6376 3.0185 4.09589 -18.0798 40.3533 1.95421 -44.0655 0.790917 -45.1974 -3.52009 4.40846 -3.67935 19.5994 -14.1916 -0.0 0.0 -0.0 12.5853 22.1526 -25.1122 -19.5031 2.00379 -64.6809 0.180727 5.11601 -0.008074 57.9711 1.59666 6.91763 -4.46005 -18.9281 19.5349 0.0 0.0 0.0 -14.2622 7.71483 17.7934 6.75424 -0.336445 -0.980892 30.1536 27.0523 -4.17854 -16.3108 0.0 0.0 -0.0 0.0 -0.0 23.9251 11.6404 0.426968 -25.1116 -0.200057 -3.81766 15.0704 -20.6342 2.15794 14.4215 -0.0 -0.0 0.0 0.0 0.0 
2814.11 744.988 -1360.26 4.84593 55.6237 -11.9568 0.621154 0.773042 3.70313 0.628622 0.536005 3.74474 0.666658 -0.219018 3.77651 0.64696 0.379728 3.76377 -13.7487 18.4458 2.67858 -14.6794 33.575 8.69141 -0.0 0.0 -0.0 1.10783 8.62444 2.96604 4.90459 -18.3393 39.6735 1.99537 -44.6621 0.819693 -45.2031 -3.52072 4.40881 -3.70571 19.5864 -14.3625 -0.0 0.0 -0.0 12.6071 22.4107 -25.1398 -20.0597 0.550568 -65.1335 0.207398 5.86607 -0.0106262 58.1558 1.61252 6.93522 -4.83532 -19.3769 21.6609 0.0 0.0 0.0 -16.0296 8.42353 19.0601 5.10393 -0.243571 -0.744915 30.593 26.6016 -4.21729 -16.1925 0.0 0.0 -0.0 0.0 -0.0 25.3826 10.3598 -1.10627 -21.6494 -0.272393 -3.29137 13.5944 -17.525 1.93576 12.4731 -0.0 -0.0 0.0 0.0 0.0 
